<svg xmlns="http://www.w3.org/2000/svg" viewBox="0 0 368.41 100.93"><defs><style>.cls-1{fill:#231f20;}</style></defs><g id="Layer_2" data-name="Layer 2"><g id="Layer_3" data-name="Layer 3"><polyline class="cls-1" points="0 74.64 13.85 74.64 13.85 55.98 37.32 55.98 37.32 37.92 37.32 0 65.62 0 65.62 34.31 90.6 34.31 90.6 2.41 112.27 2.41 112.27 31.91 145.08 31.91 145.08 6.62 175.78 6.62 175.78 34.91 207.08 34.91 207.08 11.44 237.78 11.44 237.78 33.11 273.9 33.11 273.9 9.03 294.37 9.03 294.37 37.32 302.19 37.32 302.19 31.91 323.86 31.91 323.86 37.32 340.12 37.32 340.12 25.28 368.41 25.28 368.41 74.64 338.91 74.64 338.91 62 329.28 62 329.28 94.51 302.19 94.51 302.19 68.02 296.77 68.02 296.77 74.64 273.9 74.64 273.9 68.02 262.46 68.02 262.46 94.51 240.19 94.51 240.19 65.62 198.65 65.62 198.65 94.51 174.57 94.51 174.57 65.01 111.67 65.01 111.67 81.87 119.49 81.87 119.49 74.64 153.2 74.64 153.2 100.93 0 100.93"/></g></g></svg>