<svg xmlns="http://www.w3.org/2000/svg" viewBox="0 0 157.32 211.9"><defs><style>.cls-1{fill:#231f20;}</style></defs><g id="Layer_2" data-name="Layer 2"><g id="Layer_3" data-name="Layer 3"><polyline class="cls-1" points="0 0 36.92 0 36.92 91.5 47.76 91.5 47.76 81.07 60.6 75.45 71.03 79.06 71.03 91.5 89.89 91.5 89.89 71.03 133.64 71.03 133.64 128.02 144.07 128.02 149.29 123.2 157.32 123.2 157.32 136.45 148.89 136.45 148.89 164.54 157.32 164.54 157.32 208.69 77.05 208.69 77.05 176.98 65.52 176.98 65.52 174.17 61 174.17 61 177.78 55.38 177.78 55.38 173.67 50.16 173.67 50.16 178.59 40.53 178.59 40.53 211.9 2.81 211.9 2.81 201.46 6.22 198.05 4.82 0"/></g></g></svg>